PathFileType	4	(X/Y/Z)	G:\TennisProject\Miami_Dimitrov_Sinner_masked_Sports2D\Miami_Dimitrov_Sinner_masked_Sports2D_px_person01.trc
DataRate	CameraRate	NumFrames	NumMarkers	Units	OrigDataRate	OrigDataStartFrame	OrigNumFrames
25	25	4	22	m	25	187	499
Frame#	Time	Hip			RHip			RKnee			RAnkle			RBigToe			RSmallToe			RHeel			LHip			LKnee			LAnkle			LBigToe			LSmallToe			LHeel			Neck			Head			Nose			RShoulder			RElbow			RWrist			LShoulder			LElbow			LWrist		
		X1	Y1	Z1	X2	Y2	Z2	X3	Y3	Z3	X4	Y4	Z4	X5	Y5	Z5	X6	Y6	Z6	X7	Y7	Z7	X8	Y8	Z8	X9	Y9	Z9	X10	Y10	Z10	X11	Y11	Z11	X12	Y12	Z12	X13	Y13	Z13	X14	Y14	Z14	X15	Y15	Z15	X16	Y16	Z16	X17	Y17	Z17	X18	Y18	Z18	X19	Y19	Z19	X20	Y20	Z20	X21	Y21	Z21	X22	Y22	Z22
187	7.48	892.3977522024693	813.5264718855483	0.0	887.6484951251277	815.4904776479689	0.0	851.3534669237941	847.986574216797	0.0	858.125178331265	892.4085522209743	0.0	832.285627570448	903.8114542974232	0.0	834.550219510382	899.3722037697605	0.0	865.4198618909404	900.5747148295242	0.0	900.9072060654039	819.3238388218455	0.0	871.6917801649471	875.4510822914572	0.0	892.5934243130675	938.4976452486347	0.0	866.6306069957609	954.4075173885738	0.0	874.8123291574772	956.8505179133178	0.0	900.1694618360842	946.0715114461092	0.0	859.9718143509846	735.2657049358586	0.0	847.9900267155542	703.6684127518289	0.0	846.2946037292475	723.9033366900873	0.0	857.4590165384011	745.0561745413168	0.0	844.3821858467423	774.9348453317995	0.0	845.3545126705053	772.9110173035765	0.0	870.8130920506371	738.8329188281758	0.0	901.0997943771255	751.5495725889152	0.0	863.912308660255	750.860181223441	0.0
188	7.5200000000000005	886.3986538204359	808.9999868613335	0.0	876.9981659833419	810.700446380649	0.0	845.8469457428694	843.4725851440835	0.0	854.631048283158	890.7971694798971	0.0	830.3478787362276	904.1866117150046	0.0	831.590298342554	900.6133896873316	0.0	862.0023253368497	899.7677540055291	0.0	896.3123738592399	814.6391961093358	0.0	870.0476976919281	871.731062484104	0.0	888.9657514725822	933.5121268118768	0.0	866.1657756861814	954.8365941129796	0.0	873.8486387384377	955.6143543760439	0.0	896.8640461977714	940.323523563449	0.0	856.9039237659807	730.6274696624478	0.0	844.0974091195781	697.921934385776	0.0	843.7032814583714	719.3887977130648	0.0	848.577956625076	740.441314127551	0.0	844.0030099267144	765.9521674654961	0.0	844.3516687998651	767.0354115017916	0.0	870.9132583274794	733.1163263454773	0.0	903.6080917901116	748.718830422553	0.0	867.7061499337466	747.0883576267522	0.0
189	7.5600000000000005	882.7060068865542	804.594527977423	0.0	871.8881155844877	804.7593517466726	0.0	843.2355328867625	838.2437446430004	0.0	853.9414770266362	888.6021251057707	0.0	831.7304780551331	903.878586659722	0.0	832.816762204525	900.5975092380777	0.0	860.4548653152946	898.2101691147795	0.0	892.4570617103291	808.5849050383101	0.0	866.9306486773261	865.4769732513222	0.0	884.4118535781971	927.2005192738602	0.0	867.4003681110396	953.8970063814108	0.0	874.082798872852	953.0581912995705	0.0	892.2912641601342	932.0141116623238	0.0	855.8424506099994	726.3540337927282	0.0	841.3718168331592	691.5498210772791	0.0	843.7252156593543	714.8616572469293	0.0	843.6885564274195	734.2286098652482	0.0	843.0079412739105	758.8378722001459	0.0	840.0268890743184	763.383432676043	0.0	871.8928411615148	728.10459087779	0.0	903.4295113813041	747.8326729410226	0.0	867.4409798958001	749.3590457956121	0.0
190	7.6000000000000005	881.0864400380381	798.9364334546085	0.0	874.1242234615609	798.3877950808666	0.0	844.8218465622937	834.1631425087018	0.0	854.8367760162921	886.3656678721486	0.0	833.8129052034303	903.1711234132775	0.0	834.9593990618648	900.0616853766488	0.0	860.4340395545221	896.9786177627143	0.0	887.8070347551936	801.3566947546685	0.0	862.8411802735791	857.790261481144	0.0	882.0749680827469	919.2060350683532	0.0	873.3624956633387	950.8544546156368	0.0	878.3427775934981	948.3117566084615	0.0	890.1994931133195	922.1627600647628	0.0	855.2346571807389	719.424659758082	0.0	840.2032729977127	684.8649871940478	0.0	842.791496443079	708.5884229640154	0.0	845.2869204074176	726.0595366453772	0.0	840.4324680371454	750.3245538424262	0.0	831.6688664504231	760.180510473509	0.0	870.817654901801	723.3444188917706	0.0	898.9931691299561	748.2378313639435	0.0	864.304498896007	756.8929495087943	0.0
